{"title":"The.Dead.Zone.Season.5.DSR.XviD","uid":5129899,"size":4026375271,"categoryP":"video","categoryS":"tv_shows","magnet":"?xt=urn:btih:57daeb1106948b1c22f5a37f39c4f42beeffde94&amp;dn=The.Dead.Zone.Season.5.DSR.XviD&amp;tr=udp%3A%2F%2Ftracker.openbittorrent.com%3A80&amp;tr=udp%3A%2F%2Fopen.demonii.com%3A1337&amp;tr=udp%3A%2F%2Ftracker.coppersurfer.tk%3A6969&amp;tr=udp%3A%2F%2Fexodus.desync.com%3A6969","seeders":0,"leechers":1,"uploader":null,"files":12,"time":1255999689,"description":"Mediainfo from The.Dead.Zone.S05E01.DSR.XviD-ORENJi.avi\n\nGeneral\nComplete name                    : C:The.Dead.Zone.Season.5.DSR.XviDThe.Dead.Zone.S05E01.DSR.XviD-ORENJi.avi\nFormat                           : AVI\nFormat/Info                      : Audio Video Interleave\nFile size                        : 348 MiB\nDuration                         : 41mn 8s\nOverall bit rate                 : 1 184 Kbps\nWriting application              : cant touch this\n\nVideo\nID                               : 0\nFormat                           : MPEG-4 Visual\nFormat profile                   : AdvancedSimple@L5\nFormat settings, BVOP            : Yes\nFormat settings, QPel            : No\nFormat settings, GMC             : No warppoints\nFormat settings, Matrix          : Default (H.263)\nCodec ID                         : XVID\nCodec ID/Hint                    : XviD\nDuration                         : 41mn 8s\nBit rate                         : 1 048 Kbps\nWidth                            : 512 pixels\nHeight                           : 384 pixels\nDisplay aspect ratio             : 4:3\nFrame rate                       : 23.976 fps\nResolution                       : 24 bits\nColorimetry                      : 4:2:0\nScan type                        : Progressive\nBits/(Pixel*Frame)               : 0.222\nStream size                      : 308 MiB (89%)\nWriting library                  : XviD 1.2.0SMP (UTC 2006-01-08)\n\nAudio\nID                               : 1\nFormat                           : MPEG Audio\nFormat version                   : Version 1\nFormat profile                   : Layer 3\nCodec ID                         : 55\nCodec ID/Hint                    : MP3\nDuration                         : 41mn 8s\nBit rate mode                    : Variable\nBit rate                         : 123 Kbps\nNominal bit rate                 : 128 Kbps\nChannel(s)                       : 2 channels\nSampling rate                    : 48.0 KHz\nResolution                       : 16 bits\nStream size                      : 36.3 MiB (10%)\nAlignment                        : Aligned on interleaves\nInterleave, duration             : 24 ms (0.58 video frame)\nWriting library                  : LAME3.98a\nEncoding settings                : -m j -V 4 -q 3 -lowpass 17 --abr 128\n\n","torrent":{"xt":"urn:btih:57daeb1106948b1c22f5a37f39c4f42beeffde94","amp;dn":"The.Dead.Zone.Season.5.DSR.XviD","amp;tr":["udp%3A%2F%2Ftracker.openbittorrent.com%3A80","udp%3A%2F%2Fopen.demonii.com%3A1337","udp%3A%2F%2Ftracker.coppersurfer.tk%3A6969","udp%3A%2F%2Fexodus.desync.com%3A6969"],"infoHash":"57daeb1106948b1c22f5a37f39c4f42beeffde94","infoHashBuffer":{"type":"Buffer","data":[87,218,235,17,6,148,139,28,34,245,163,127,57,196,244,43,238,255,222,148]},"announce":[],"urlList":[]}}